<svg width="62" height="71" viewBox="0 0 62 71" fill="none" xmlns="http://www.w3.org/2000/svg">
<path d="M47.9726 3.09858C48.6511 2.82348 48.8928 2.03316 48.66 1.39431L48.6116 1.27604C48.3388 0.697728 47.68 0.323334 47.0245 0.589564C22.2212 10.6033 15.5116 39.4519 18.7348 67.1181L18.7337 67.1173C18.8112 67.7933 19.3819 68.3925 20.112 68.3306C20.8626 68.267 21.2897 67.5523 21.2119 66.8745L21.2117 66.8735C19.6538 53.4947 20.4718 39.9062 24.6206 28.4851C28.7657 17.0742 36.2279 7.84014 47.9717 3.09879L47.9726 3.09858Z" fill="#FF7A00" stroke="#FF7A00"/>
<path d="M29.3597 54.8489C29.7802 54.3803 29.7438 53.6565 29.2735 53.2341C28.8051 52.8137 28.0822 52.8503 27.6597 53.3201C24.7039 56.6046 22.3371 60.117 20.4958 64.132C20.4516 64.2284 20.2036 64.8085 19.9144 65.4814C19.1123 63.2631 18.2862 60.8101 17.1317 58.643C15.7055 55.9666 13.7419 53.6339 10.6751 52.4644L10.3753 52.3541L10.3744 52.3544C9.77998 52.1482 9.12605 52.4608 8.91854 53.0584C8.7251 53.6156 8.98784 54.2254 9.51379 54.4705L9.62261 54.5143C12.2091 55.415 13.8573 57.3593 15.1144 59.7185L15.1146 59.7195C16.4457 62.2174 17.2871 65.066 18.283 67.6585L18.2839 67.6583C18.314 67.7379 18.3639 67.9078 18.4536 68.1677C18.5304 68.3903 18.6362 68.6785 18.7478 68.8716L18.7491 68.8733C18.9853 69.2777 19.3268 69.4678 19.592 69.5297L19.5953 69.5309C19.8093 69.5792 20.1073 69.586 20.4231 69.4023C20.426 69.4006 20.4289 69.399 20.432 69.3973C20.4343 69.3959 20.4369 69.395 20.4392 69.3937L20.439 69.3927C20.5615 69.3207 20.7652 69.1541 20.925 68.84L20.9248 68.839C21.0833 68.5302 21.4749 67.6342 21.8302 66.8119C22.1944 65.9691 22.525 65.194 22.574 65.0871L22.5738 65.0861C24.3148 61.2884 26.553 57.9647 29.3587 54.8491L29.3597 54.8489Z" fill="#FF7A00" stroke="#FF7A00"/>
</svg>
